<?xml version="1.0" encoding="UTF-8"?>
<svg width="22px" height="19px" viewBox="0 0 22 19" version="1.1" xmlns="http://www.w3.org/2000/svg" xmlns:xlink="http://www.w3.org/1999/xlink">
    <!-- Generator: Sketch 63.1 (92452) - https://sketch.com -->
    <title>Icons/ ⚡️ Image</title>
    <desc>Created with Sketch.</desc>
    <g id="Page-1" stroke="none" stroke-width="1" fill="none" fill-rule="evenodd">
        <g id="Icons/-⚡️-Image" fill="#0791E6" fill-rule="nonzero">
            <path d="M20.6225078,1.31944444 C20.6233672,1.3201454 20.6242695,1.32101128 20.625,1.32183594 L20.625,17.1504275 C20.6242695,17.1512522 20.6233672,17.1521181 20.6225078,17.152819 L1.37744922,17.152819 C1.37658984,17.1521181 1.3756875,17.1512522 1.375,17.1504275 L1.375,1.3217947 C1.37573047,1.32097005 1.37663281,1.32010417 1.37744922,1.31944444 L20.6225078,1.31944444 Z M20.625,0 L1.375,0 C0.61875,0 0,0.59375 0,1.31944444 L0,17.1527778 C0,17.8784722 0.61875,18.4722222 1.375,18.4722222 L20.625,18.4722222 C21.38125,18.4722222 22,17.8784722 22,17.1527778 L22,1.31944444 C22,0.59375 21.38125,0 20.625,0 L20.625,0 Z M17.875,4.61805556 C17.875,5.71113281 16.9516016,6.59722222 15.8125,6.59722222 C14.6733984,6.59722222 13.75,5.71113281 13.75,4.61805556 C13.75,3.5249783 14.6733984,2.63888889 15.8125,2.63888889 C16.9516016,2.63888889 17.875,3.5249783 17.875,4.61805556 Z M19.25,15.8333333 L2.75,15.8333333 L2.75,13.1944444 L7.5625,5.27777778 L13.0625,11.875 L14.4375,11.875 L19.25,7.91666667 L19.25,15.8333333 Z" id="Shape"></path>
        </g>
    </g>
</svg>